<?xml version="1.0" encoding="UTF-8"?>
<svg width="600pt" version="1.1" xmlns="http://www.w3.org/2000/svg" height="800pt" viewBox="0 0 600 800" xmlns:xlink="http://www.w3.org/1999/xlink">
 <defs>
  <path id="GlLinLibertineO67" d="M3.57 10.1 C4.54 10.1 5.43 9.64 6.11 8.75 C6.06 8.66 5.99 8.6 5.88 8.6 C5.17 9.38 4.49 9.69 3.56 9.69 C2.21 9.69 1.28 8.17 1.28 6.71 C1.28 5.85 1.5 5.13 1.87 4.68 C2.37 4.07 2.95 3.79 3.47 3.79 C4.85 3.79 5.4 4.61 5.66 5.47 C5.78 5.51 5.87 5.48 5.99 5.42 C5.94 4.9 5.87 4.42 5.77 3.87 C5.26 3.82 4.81 3.42 3.58 3.42 C2.73 3.42 2.02 3.73 1.43 4.27 C0.76 4.88 0.37 5.86 0.37 6.9 C0.37 8.64 1.42 10.1 3.57 10.1 Z"/>
  <path id="GlLinLibertineO104" d="M1.67 7.15 C1.67 6.93 1.76 6.81 1.84 6.72 C2.22 6.35 2.72 6.13 3.12 6.13 C3.32 6.13 3.53 6.27 3.65 6.49 C3.75 6.69 3.77 6.96 3.77 7.26 L3.77 8.78 C3.77 9.6 3.67 9.64 3.15 9.69 C3.1 9.75 3.1 9.96 3.15 10.02 C3.43 10.01 3.77 10 4.17 10 C4.57 10 4.9 10.01 5.23 10.02 C5.28 9.96 5.28 9.75 5.23 9.69 C4.67 9.64 4.56 9.6 4.56 8.78 L4.56 7.29 C4.56 6.74 4.52 6.26 4.29 5.95 C4.12 5.73 3.81 5.61 3.46 5.61 C2.96 5.61 2.37 5.74 1.76 6.42 C1.72 6.46 1.66 6.56 1.66 6.42 L1.67 4.17 C1.67 3.52 1.71 3.12 1.71 3.12 C1.71 3.05 1.67 3.02 1.58 3.02 C1.33 3.12 0.58 3.26 0.18 3.29 C0.16 3.37 0.18 3.53 0.24 3.59 C0.76 3.62 0.88 3.57 0.88 4.41 L0.88 8.78 C0.88 9.61 0.76 9.65 0.18 9.69 C0.12 9.75 0.12 9.96 0.18 10.02 C0.51 10.01 0.88 10 1.28 10 C1.66 10 1.98 10.01 2.26 10.02 C2.32 9.96 2.32 9.75 2.26 9.69 C1.76 9.65 1.67 9.61 1.67 8.78 L1.67 7.15 Z"/>
  <path id="GlLinLibertineO97" d="M2.93 7.67 L2.93 8.99 C2.93 9.12 2.87 9.19 2.79 9.25 C2.53 9.46 2.19 9.69 1.91 9.69 C1.41 9.69 1.19 9.29 1.19 8.98 C1.19 8.53 1.4 8.07 2.14 7.88 L2.93 7.67 L2.93 7.67 Z M2.93 9.52 C2.99 9.83 3.09 10.1 3.6 10.1 C3.98 10.1 4.34 9.93 4.55 9.73 C4.53 9.61 4.49 9.53 4.38 9.46 C4.3 9.53 4.13 9.62 4.01 9.62 C3.72 9.62 3.71 9.23 3.71 8.77 L3.71 7.3 C3.71 5.88 2.93 5.61 2.2 5.61 C1.38 5.61 0.55 6.15 0.55 6.72 C0.55 6.96 0.67 7.08 0.9 7.08 C1.19 7.08 1.37 6.87 1.37 6.74 C1.37 6.67 1.36 6.6 1.34 6.56 C1.33 6.53 1.32 6.47 1.32 6.36 C1.32 6.05 1.74 5.94 2.12 5.94 C2.46 5.94 2.93 6.11 2.93 7.24 C2.93 7.31 2.9 7.35 2.87 7.36 L2.01 7.57 C1.05 7.81 0.36 8.34 0.36 9.02 C0.36 9.84 0.92 10.1 1.62 10.1 C1.96 10.1 2.27 10.02 2.71 9.68 L2.91 9.52 L2.93 9.52 Z"/>
  <path id="GlLinLibertineO114" d="M1.76 6.42 C1.74 6.02 1.72 5.77 1.68 5.66 C1.65 5.62 1.64 5.58 1.56 5.58 C1.28 5.69 1.02 5.78 0.33 5.87 C0.31 5.93 0.33 6.09 0.35 6.15 C0.89 6.2 1 6.25 1 6.83 L1 8.78 C1 9.61 0.88 9.65 0.26 9.69 C0.2 9.75 0.2 9.96 0.26 10.02 C0.61 10.01 1 10 1.4 10 C1.8 10 2.26 10.01 2.61 10.02 C2.67 9.96 2.67 9.75 2.61 9.69 C1.91 9.64 1.79 9.61 1.79 8.78 L1.79 7.39 C1.79 7.13 1.91 6.9 2.03 6.72 C2.14 6.56 2.37 6.23 2.49 6.23 C2.58 6.23 2.67 6.26 2.74 6.36 C2.82 6.46 2.93 6.59 3.11 6.59 C3.35 6.59 3.58 6.34 3.58 6.09 C3.58 5.9 3.4 5.61 2.98 5.61 C2.51 5.61 2.1 6.05 1.87 6.44 C1.81 6.55 1.76 6.47 1.76 6.42 Z"/>
  <path id="GlLinLibertineO108" d="M0.95 8.78 C0.95 9.61 0.84 9.66 0.23 9.69 C0.17 9.75 0.17 9.96 0.23 10.02 C0.58 10.01 0.95 10 1.35 10 C1.75 10 2.13 10.01 2.46 10.02 C2.52 9.96 2.52 9.75 2.46 9.69 C1.85 9.66 1.74 9.61 1.74 8.78 L1.74 4.17 C1.74 3.52 1.78 3.12 1.78 3.12 C1.78 3.05 1.74 3.02 1.65 3.02 C1.4 3.12 0.65 3.26 0.25 3.29 C0.23 3.37 0.25 3.53 0.31 3.59 C0.89 3.63 0.95 3.66 0.95 4.41 L0.95 8.78 Z"/>
  <path id="GlLinLibertineO101" d="M1.24 7.18 C1.43 6.05 2.13 5.96 2.37 5.96 C2.75 5.96 3.2 6.17 3.2 7.01 C3.2 7.1 3.16 7.15 3.05 7.15 L1.24 7.18 L1.24 7.18 Z M3.86 9.07 C3.49 9.45 3.2 9.61 2.62 9.61 C2.26 9.61 1.84 9.4 1.53 8.89 C1.33 8.56 1.21 8.1 1.21 7.52 L3.87 7.54 C3.99 7.54 4.06 7.48 4.06 7.37 C4.06 6.53 3.76 5.63 2.37 5.63 C1.5 5.63 0.37 6.46 0.37 7.98 C0.37 8.54 0.51 9.08 0.84 9.46 C1.18 9.86 1.65 10.1 2.37 10.1 C3.13 10.1 3.67 9.75 4.07 9.23 C4.04 9.13 3.98 9.08 3.86 9.07 Z"/>
  <path id="GlLinLibertineO115" d="M0.48 8.62 C0.52 9.11 0.55 9.58 0.55 10 C0.65 9.98 0.75 9.97 0.8 9.97 C0.87 9.97 0.93 9.97 1 9.99 C1.27 10.06 1.54 10.1 1.91 10.1 C2.47 10.1 3.5 9.83 3.5 8.84 C3.5 8.16 3.01 7.76 2.33 7.51 C1.72 7.29 1.33 7.13 1.33 6.58 C1.33 6.17 1.69 5.94 2.03 5.94 C2.25 5.94 2.83 6.02 2.96 6.87 C3.02 6.93 3.22 6.92 3.28 6.86 C3.31 6.5 3.33 6.13 3.34 5.8 C3.03 5.75 2.55 5.61 2.03 5.61 C1.29 5.61 0.62 6.09 0.62 6.73 C0.62 7.46 0.95 7.77 1.72 8.09 C2.55 8.43 2.74 8.64 2.74 9.07 C2.74 9.56 2.26 9.77 1.89 9.77 C1.5 9.77 1.28 9.64 1.18 9.53 C0.96 9.3 0.85 8.86 0.79 8.61 C0.73 8.55 0.54 8.56 0.48 8.62 Z"/>
  <path id="GlLinLibertineO68" d="M1.91 9.16 L1.91 4.36 C1.91 4.01 2.26 3.87 2.75 3.87 C4.91 3.87 5.62 5.62 5.62 7.16 C5.62 9.18 4.41 9.68 3 9.68 C2.02 9.68 1.91 9.48 1.91 9.16 L1.91 9.16 Z M1.48 3.55 C1.12 3.55 0.59 3.54 0.19 3.53 C0.13 3.59 0.13 3.8 0.19 3.86 C0.89 3.89 1.06 3.94 1.06 4.77 L1.06 8.78 C1.06 9.61 0.89 9.66 0.19 9.69 C0.13 9.75 0.13 9.96 0.19 10.02 C0.58 10.01 1.11 10 1.49 10 C1.86 10 2.28 10.02 3.31 10.02 C4.72 10.02 6.58 9.38 6.58 6.92 C6.58 5.06 5.05 3.53 3.13 3.53 C2.42 3.53 1.87 3.55 1.48 3.55 Z"/>
  <path id="GlLinLibertineO122" d="M0.71 5.61 C0.68 5.61 0.65 5.65 0.65 5.67 C0.64 6.12 0.59 6.47 0.5 6.96 C0.58 7 0.71 7.02 0.83 6.99 C1.03 6.26 1.34 6.09 1.64 6.08 L2.92 6.05 C2.24 7.19 1.24 8.63 0.46 9.68 C0.37 9.8 0.37 9.83 0.37 9.88 C0.37 9.95 0.45 10 0.6 10 L3.72 10.03 C3.84 9.69 3.97 9.17 4.04 8.67 C3.97 8.64 3.86 8.61 3.74 8.61 L3.6 8.9 C3.34 9.43 3.14 9.65 2.62 9.66 L1.29 9.66 C2.03 8.72 3.07 7.15 3.69 6.13 C3.84 5.88 3.87 5.8 3.87 5.76 C3.87 5.72 3.82 5.69 3.75 5.69 C3.7 5.69 3.42 5.71 3.13 5.71 L1.3 5.71 C0.97 5.71 0.85 5.67 0.71 5.61 Z"/>
  <path id="GlLinLibertineO111" d="M0.41 7.95 C0.41 8.97 1.09 10.1 2.51 10.1 C3.15 10.1 3.63 9.88 3.97 9.54 C4.42 9.11 4.63 8.48 4.63 7.86 C4.63 6.82 4.06 5.61 2.53 5.61 C1.87 5.61 1.32 5.88 0.96 6.31 C0.6 6.74 0.41 7.32 0.41 7.95 L0.41 7.95 Z M2.38 5.96 C3.24 5.96 3.77 6.74 3.77 8.18 C3.77 9.44 3.12 9.75 2.65 9.75 C1.61 9.75 1.27 8.49 1.27 7.72 C1.27 6.85 1.48 5.96 2.38 5.96 Z"/>
  <path id="GlLinLibertineO98" d="M1.74 6.37 C2 6.14 2.3 6.05 2.59 6.05 C3.2 6.05 3.7 6.79 3.7 7.76 C3.7 8.9 3.24 9.76 2.29 9.76 C1.98 9.76 1.77 9.54 1.57 9.29 L1.57 6.79 C1.57 6.58 1.61 6.49 1.74 6.37 L1.74 6.37 Z M1.67 6.06 C1.6 6.12 1.57 6.1 1.57 6.01 L1.57 4.17 C1.57 3.52 1.61 3.12 1.61 3.12 C1.61 3.05 1.57 3.02 1.48 3.02 C1.23 3.12 0.48 3.26 0.08 3.29 C0.06 3.37 0.08 3.53 0.14 3.59 C0.66 3.62 0.78 3.57 0.78 4.41 L0.78 9.29 C0.78 9.68 0.77 9.86 0.74 10 C0.79 10.08 0.84 10.12 0.96 10.12 C1.02 10.07 1.12 9.97 1.19 9.88 C1.3 9.76 1.36 9.76 1.47 9.86 C1.69 10.05 1.99 10.1 2.35 10.1 C3.37 10.1 4.56 9.17 4.56 7.58 C4.56 6.36 3.66 5.61 2.79 5.61 C2.36 5.61 1.98 5.78 1.67 6.06 Z"/>
  <path id="GlLinLibertineO121" d="M2.04 11.6 C2.19 11.33 2.32 11.04 2.45 10.74 C3.25 8.81 3.69 7.79 4.22 6.66 C4.41 6.24 4.56 6.08 5.03 6.02 C5.09 5.96 5.09 5.75 5.03 5.69 C4.83 5.7 4.6 5.71 4.32 5.71 C4.02 5.71 3.71 5.7 3.41 5.69 C3.35 5.75 3.35 5.96 3.41 6.02 C3.72 6.05 4.05 6.11 3.89 6.47 L2.89 8.76 C2.82 8.93 2.74 8.95 2.65 8.75 L1.77 6.67 C1.59 6.25 1.53 6.07 2.09 6.02 C2.15 5.96 2.15 5.75 2.09 5.69 C1.72 5.7 1.32 5.71 0.96 5.71 C0.62 5.71 0.35 5.7 0.15 5.69 C0.09 5.75 0.09 5.96 0.15 6.02 C0.55 6.07 0.68 6.16 0.94 6.77 L2.07 9.4 C2.16 9.61 2.31 10.06 2.21 10.34 C2.1 10.68 1.97 10.95 1.82 11.26 C1.71 11.46 1.57 11.55 1.32 11.55 C1.18 11.55 1.14 11.52 1.03 11.52 C0.74 11.52 0.59 11.82 0.59 11.95 C0.59 12.16 0.79 12.32 1.06 12.32 C1.27 12.32 1.67 12.24 2.03 11.6 L2.04 11.6 Z"/>
  <path id="GlLinLibertineOZ68" d="M2.21 9.25 L2.21 4.29 C2.21 3.97 2.47 3.94 2.83 3.94 C4.8 3.94 5.49 5.65 5.49 7.16 C5.49 9.12 4.36 9.6 3.08 9.6 C2.3 9.6 2.21 9.54 2.21 9.25 L2.21 9.25 Z M0.24 10 L3.38 10 C4.87 10 6.81 9.37 6.81 6.91 C6.81 5.06 5.23 3.54 3.2 3.54 L0.24 3.54 L0.22 3.56 L0.22 3.79 C0.22 3.84 0.26 3.87 0.3 3.87 L0.44 3.87 C0.84 3.87 0.99 3.99 0.99 4.31 L0.99 9.23 C0.99 9.55 0.84 9.67 0.44 9.67 L0.3 9.67 C0.26 9.67 0.22 9.7 0.22 9.76 L0.22 9.98 L0.24 10 Z"/>
  <path id="GlLinLibertineOZ101" d="M1.54 7.15 C1.68 6.13 2.27 5.98 2.48 5.98 C2.75 5.98 3.16 6.24 3.16 7.04 C3.16 7.1 3.16 7.13 3.14 7.15 L1.54 7.15 L1.54 7.15 Z M3.97 8.91 C3.6 9.36 3.23 9.54 2.85 9.54 C2.07 9.54 1.49 8.79 1.49 7.81 L1.49 7.55 L3.92 7.55 C4.16 7.55 4.31 7.48 4.31 7.34 C4.31 6.49 3.96 5.56 2.49 5.56 C1.44 5.56 0.34 6.49 0.34 8.02 C0.34 9.12 0.94 10.1 2.46 10.1 C3.15 10.1 3.85 9.87 4.22 9.12 L3.97 8.91 Z"/>
  <path id="GlLinLibertineOZ115" d="M0.37 8.54 C0.44 9.06 0.49 9.5 0.49 9.98 C1.01 9.97 1.44 10.1 1.92 10.1 C2.69 10.1 3.65 9.76 3.65 8.81 C3.65 8.03 2.94 7.6 2.08 7.28 C1.67 7.13 1.53 6.9 1.53 6.55 C1.53 6.15 1.82 5.98 2.09 5.98 C2.54 5.98 2.86 6.21 3.06 6.91 L3.45 6.86 C3.42 6.5 3.38 6.14 3.34 5.84 C2.95 5.65 2.61 5.56 2.06 5.56 C1.15 5.56 0.5 6.1 0.5 6.79 C0.5 7.59 1.38 8.1 1.88 8.28 C2.43 8.47 2.54 8.67 2.54 9.06 C2.54 9.52 2.22 9.71 1.95 9.71 C1.2 9.71 0.95 9.38 0.77 8.52 L0.37 8.54 Z"/>
  <path id="GlLinLibertineOZ118" d="M4.33 6.48 C4.48 6.09 4.74 6.02 5.04 5.98 C5.1 5.98 5.15 5.94 5.15 5.89 L5.15 5.66 L5.13 5.64 C5.13 5.64 4.66 5.66 4.36 5.66 C3.95 5.66 3.33 5.64 3.33 5.64 L3.29 5.67 L3.29 5.91 C3.29 5.94 3.32 5.97 3.37 5.98 L3.41 5.99 C3.76 6.08 3.93 6.15 3.84 6.42 L2.94 8.95 L1.95 6.43 C1.84 6.13 1.84 6.04 2.15 6 L2.32 5.98 C2.34 5.98 2.4 5.97 2.4 5.9 L2.4 5.66 L2.36 5.64 C2.36 5.64 1.54 5.66 1.13 5.66 C0.73 5.66 0.12 5.64 0.12 5.64 L0.09 5.66 L0.09 5.91 C0.09 5.96 0.14 5.98 0.19 5.98 C0.64 6.03 0.78 6.35 0.91 6.66 L2.06 9.6 C2.22 10 2.38 10.12 2.65 10.12 C2.88 10.12 2.99 10 3.15 9.59 L4.33 6.48 Z"/>
  <path id="GlLinLibertineOZ114" d="M2.07 6.19 L2.05 6.19 L2.07 5.56 C2.07 5.54 2.02 5.53 2 5.53 C1.68 5.63 1.02 5.74 0.32 5.83 L0.34 6.17 L0.75 6.21 C0.89 6.22 0.97 6.29 0.97 6.79 L0.97 9.23 C0.97 9.5 0.8 9.6 0.49 9.66 L0.39 9.68 C0.35 9.69 0.32 9.71 0.32 9.77 L0.32 10 L0.34 10.02 C0.34 10.02 1.14 10 1.5 10 C1.89 10 2.69 10.02 2.69 10.02 L2.71 10 L2.71 9.77 C2.71 9.71 2.66 9.69 2.63 9.68 L2.55 9.66 C2.24 9.59 2.07 9.51 2.07 9.23 L2.07 7.12 C2.07 6.77 2.18 6.53 2.33 6.42 C2.45 6.34 2.53 6.29 2.69 6.29 C2.87 6.29 3.03 6.69 3.43 6.69 C3.72 6.69 3.93 6.44 3.93 6.12 C3.93 5.86 3.71 5.56 3.35 5.56 C3 5.56 2.57 5.68 2.07 6.19 Z"/>
  <path id="GlLinLibertineOZ80" d="M2.21 4.42 C2.21 4.07 2.28 3.87 2.81 3.87 C3.39 3.87 4.06 4.11 4.06 5.33 C4.06 6.37 3.53 6.81 2.71 6.81 C2.56 6.81 2.35 6.8 2.21 6.78 L2.21 4.42 L2.21 4.42 Z M0.99 9.11 C0.99 9.49 0.84 9.61 0.44 9.66 L0.3 9.68 C0.26 9.69 0.22 9.71 0.22 9.77 L0.22 10 L0.24 10.02 C0.61 10.01 1.22 10 1.6 10 C1.98 10 2.69 10.01 3.06 10.02 L3.08 10 L3.08 9.77 C3.08 9.71 3.06 9.69 3 9.68 L2.81 9.66 C2.41 9.62 2.21 9.49 2.21 9.11 L2.21 7.18 C2.35 7.2 2.52 7.21 2.76 7.21 C4.73 7.21 5.33 6.12 5.33 5.16 C5.33 4.52 4.9 3.46 2.89 3.46 C2.08 3.46 0.83 3.53 0.24 3.53 L0.22 3.55 L0.22 3.79 C0.22 3.83 0.25 3.87 0.33 3.87 L0.65 3.89 C0.87 3.9 0.99 4.05 0.99 4.4 L0.99 9.11 Z"/>
  <path id="GlLinLibertineOZ111" d="M2.5 5.97 C3.18 5.97 3.64 6.73 3.64 8.16 C3.64 9.43 3.11 9.67 2.75 9.67 C1.93 9.67 1.56 8.45 1.56 7.71 C1.56 6.86 1.86 5.97 2.5 5.97 L2.5 5.97 Z M0.34 7.93 C0.34 8.96 1.12 10.1 2.59 10.1 C4.14 10.1 4.85 8.85 4.85 7.84 C4.85 6.79 4.23 5.56 2.6 5.56 C1.15 5.56 0.34 6.56 0.34 7.93 Z"/>
  <path id="GlLinLibertineOZ98" d="M1.84 9.44 L1.84 6.38 C2.17 6.17 2.37 6.07 2.61 6.07 C3.1 6.07 3.53 6.82 3.53 7.8 C3.53 8.91 3.13 9.69 2.34 9.69 C2.16 9.69 2.01 9.63 1.84 9.44 L1.84 9.44 Z M0.74 4.37 L0.74 9.26 C0.74 9.64 0.73 9.83 0.7 10.07 L1.04 10.13 L1.34 9.6 C1.58 9.88 1.95 10.1 2.39 10.1 C3.5 10.1 4.68 9.17 4.68 7.57 C4.68 6.34 3.84 5.56 2.86 5.56 C2.48 5.56 2.13 5.77 1.84 5.98 L1.84 4.17 C1.84 3.52 1.87 3.12 1.87 3.12 C1.87 3.05 1.8 3.02 1.71 3.02 C1.45 3.12 0.43 3.25 0.03 3.28 L0.06 3.57 C0.06 3.6 0.08 3.62 0.12 3.62 L0.44 3.64 C0.64 3.64 0.74 3.72 0.74 4.37 Z"/>
  <path id="GlLinLibertineOZ102" d="M0.99 9.25 C0.99 9.53 0.84 9.61 0.51 9.66 L0.37 9.68 C0.32 9.69 0.29 9.71 0.29 9.77 L0.29 10 L0.31 10.02 C0.31 10.02 1.16 10 1.52 10 C1.91 10 2.87 10.02 2.87 10.02 L2.89 10 L2.89 9.77 C2.89 9.71 2.85 9.69 2.81 9.68 L2.63 9.66 C2.31 9.63 2.09 9.5 2.09 9.22 L2.09 6.13 L2.9 6.13 C3.08 6.13 3.25 6.08 3.25 5.96 L3.25 5.76 C3.25 5.7 3.24 5.66 3.05 5.66 L2.09 5.66 L2.09 5.15 C2.09 3.66 2.45 3.44 2.67 3.44 C2.84 3.44 3.01 3.54 3.18 3.86 C3.31 4.09 3.48 4.26 3.79 4.26 C4.08 4.26 4.25 4.01 4.25 3.76 C4.25 3.59 3.92 3.02 2.86 3.02 C1.92 3.02 0.99 3.91 0.99 5.56 L0.99 5.66 L0.7 5.66 C0.36 5.66 0.26 5.81 0.26 5.89 L0.26 6.03 C0.26 6.1 0.3 6.13 0.53 6.13 L0.99 6.13 L0.99 9.25 Z"/>
  <path id="GlLinLibertineOZ97" d="M2.81 9.52 L2.83 9.52 C2.95 9.91 3.21 10.1 3.81 10.1 C4.36 10.1 4.74 9.67 4.74 9.62 C4.74 9.55 4.65 9.42 4.61 9.42 C4.55 9.42 4.54 9.58 4.3 9.58 C3.91 9.58 3.9 9.2 3.9 8.74 L3.9 7.29 C3.9 5.85 3.08 5.56 2.26 5.56 C1.53 5.56 0.48 6.08 0.48 6.68 C0.48 6.94 0.59 7.1 0.95 7.1 C1.23 7.1 1.47 6.86 1.47 6.72 C1.47 6.6 1.41 6.49 1.41 6.29 C1.41 6.07 1.74 5.94 2.12 5.94 C2.54 5.94 2.82 6.16 2.82 7.43 L2.1 7.64 C1.06 7.95 0.36 8.26 0.36 9.05 C0.36 9.74 0.69 10.1 1.56 10.1 C1.98 10.1 2.42 9.86 2.81 9.52 L2.81 9.52 Z M2.82 9.15 C2.57 9.35 2.22 9.55 2.04 9.55 C1.56 9.55 1.41 9.25 1.41 8.9 C1.41 8.49 1.54 8.19 2.25 7.98 L2.82 7.81 L2.82 9.15 Z"/>
  <path id="GlLinLibertineOZ110" d="M2.08 6.19 L2.06 6.19 L2.08 5.56 C2.08 5.54 2.03 5.53 2.01 5.53 C1.69 5.63 1.03 5.74 0.33 5.83 L0.35 6.17 L0.76 6.21 C0.9 6.22 0.98 6.29 0.98 6.79 L0.98 9.24 C0.98 9.52 0.82 9.59 0.5 9.66 L0.41 9.68 C0.36 9.7 0.33 9.71 0.33 9.77 L0.33 10 L0.35 10.02 C0.35 10.02 1.16 10 1.51 10 C1.9 10 2.66 10.02 2.66 10.02 L2.68 10 L2.68 9.77 C2.68 9.71 2.63 9.69 2.6 9.68 L2.56 9.67 C2.25 9.6 2.08 9.51 2.08 9.24 L2.08 6.59 C2.57 6.28 2.99 6.12 3.29 6.12 C3.65 6.12 3.71 6.42 3.71 7.1 L3.71 9.24 C3.71 9.52 3.54 9.6 3.23 9.67 L3.19 9.68 C3.14 9.7 3.11 9.71 3.11 9.77 L3.11 10 L3.13 10.02 C3.13 10.02 3.89 10 4.25 10 C4.64 10 5.44 10.02 5.44 10.02 L5.46 10 L5.46 9.77 C5.46 9.71 5.41 9.69 5.38 9.68 L5.3 9.66 C4.99 9.59 4.81 9.52 4.81 9.24 L4.81 7.17 C4.81 6.26 4.66 5.56 3.59 5.56 C3.11 5.56 2.59 5.8 2.08 6.19 Z"/>
  <path id="GlLinLibertineOZ231" d="M2 10.81 C2.18 10.81 2.42 10.97 2.42 11.16 C2.42 11.43 2.22 11.57 1.92 11.57 C1.72 11.57 1.61 11.53 1.34 11.43 L1.22 11.7 C1.47 11.81 1.62 11.87 1.94 11.87 C2.55 11.87 3.15 11.57 3.15 11.04 C3.15 10.66 2.82 10.46 2.42 10.46 C2.33 10.46 2.18 10.46 2.1 10.48 L2.25 10.1 C2.32 10.1 2.4 10.1 2.49 10.1 C3.2 10.1 3.76 9.74 4.06 9.13 L3.86 8.94 C3.43 9.42 3.12 9.59 2.75 9.59 C2.09 9.59 1.51 8.82 1.51 7.74 C1.51 6.63 1.96 5.98 2.49 5.98 C2.87 5.98 3.01 6.37 3.04 6.69 C3.07 6.96 3.29 7.16 3.61 7.16 C3.93 7.16 4.11 6.91 4.11 6.6 C4.11 6.06 3.62 5.56 2.53 5.56 C1.35 5.56 0.37 6.56 0.37 7.99 C0.37 9.1 0.87 9.85 1.9 10.05 L1.49 10.81 L1.55 10.87 C1.71 10.82 1.81 10.81 2 10.81 Z"/>
  <path id="GlLinLibertineOZ105" d="M2.11 6.79 C2.11 6.29 2.14 5.56 2.14 5.56 C2.14 5.54 2.09 5.53 2.07 5.53 C1.75 5.63 1.05 5.74 0.36 5.83 L0.38 6.13 L0.79 6.17 C0.93 6.18 1.01 6.29 1.01 6.79 L1.01 9.23 C1.01 9.51 0.85 9.61 0.54 9.66 L0.42 9.68 C0.38 9.69 0.35 9.71 0.35 9.77 L0.35 10 L0.37 10.02 C0.37 10.02 1.18 10 1.54 10 C1.93 10 2.74 10.02 2.74 10.02 L2.76 10 L2.76 9.77 C2.76 9.71 2.71 9.69 2.68 9.68 L2.58 9.66 C2.28 9.61 2.11 9.51 2.11 9.23 L2.11 6.79 L2.11 6.79 Z M0.95 4.29 C0.95 4.62 1.22 4.89 1.55 4.89 C1.88 4.89 2.15 4.62 2.15 4.29 C2.15 3.96 1.88 3.69 1.55 3.69 C1.22 3.69 0.95 3.96 0.95 4.29 Z"/>
  <path id="GlLinLibertineOZ65" d="M2.53 7.12 C2.35 7.12 2.34 7.09 2.34 7 L3.2 4.86 L4.03 7.12 L2.53 7.12 L2.53 7.12 Z M1.48 9.21 L2.05 7.73 C2.11 7.6 2.16 7.59 2.36 7.59 L4.2 7.59 L4.82 9.27 C4.84 9.3 4.84 9.36 4.84 9.41 C4.84 9.56 4.76 9.67 4.59 9.67 L4.32 9.67 C4.14 9.67 4.06 9.69 4.06 9.77 L4.06 9.96 L4.14 10.01 C4.14 10.01 5.22 9.99 5.58 9.99 C5.96 9.99 6.92 10.01 6.92 10.01 L6.97 9.97 L6.97 9.77 C6.97 9.69 6.97 9.67 6.82 9.67 L6.54 9.67 C6.29 9.67 6.15 9.46 6.01 9.09 L3.99 3.73 C3.91 3.52 3.75 3.42 3.54 3.42 C3.43 3.42 3.22 3.49 3.12 3.73 L0.89 9.09 C0.72 9.5 0.42 9.67 0.22 9.67 C0.1 9.67 0.02 9.67 0.02 9.77 L0.02 9.98 L0.1 10.01 C0.1 10.01 0.7 9.99 0.95 9.99 C1.19 9.99 2.11 10.01 2.11 10.01 L2.16 9.97 L2.16 9.77 C2.16 9.69 2.11 9.67 1.95 9.67 C1.36 9.67 1.37 9.5 1.48 9.21 Z"/>
  <path id="GlLinLibertineOZ108" d="M0.95 4.37 L0.95 9.23 C0.95 9.51 0.78 9.61 0.47 9.66 L0.35 9.68 C0.3 9.69 0.27 9.71 0.27 9.77 L0.27 10 L0.29 10.02 C0.29 10.02 1.13 10 1.48 10 C1.87 10 2.71 10.02 2.71 10.02 L2.73 10 L2.73 9.77 C2.73 9.71 2.68 9.69 2.65 9.68 L2.54 9.66 C2.21 9.61 2.05 9.51 2.05 9.23 L2.05 4.17 C2.05 3.52 2.08 3.12 2.08 3.12 C2.08 3.05 2.01 3.02 1.92 3.02 C1.66 3.12 0.64 3.25 0.24 3.28 L0.27 3.57 C0.27 3.6 0.29 3.62 0.33 3.62 L0.65 3.64 C0.85 3.64 0.95 3.72 0.95 4.37 Z"/>
  <path id="GlLinLibertineOZ117" d="M4.62 8.85 L4.62 6.46 C4.62 6.06 4.64 5.64 4.64 5.64 C4.64 5.64 4.25 5.66 4.04 5.66 C3.77 5.66 2.93 5.64 2.93 5.64 L2.89 5.66 L2.89 5.96 L2.93 5.98 L3.24 6 C3.42 6 3.52 6.16 3.52 6.48 L3.52 9.23 C3.15 9.55 2.73 9.6 2.51 9.6 C2.3 9.6 1.97 9.42 1.97 8.58 L1.97 6.46 C1.97 6.09 1.98 5.64 1.98 5.64 C1.98 5.64 1.54 5.66 1.4 5.66 C1.08 5.66 0.29 5.64 0.29 5.64 L0.24 5.66 L0.24 5.96 L0.27 5.98 L0.58 6 C0.81 6.02 0.87 6.18 0.87 6.48 L0.87 8.72 C0.87 9.42 1.1 10.1 2.26 10.1 C2.63 10.1 3.08 9.95 3.55 9.65 L3.52 10.12 L3.86 10.12 C4.12 9.97 4.36 9.84 5.27 9.72 L5.26 9.41 C4.72 9.38 4.62 9.15 4.62 8.85 Z"/>
  <path id="GlLinLibertineOZ109" d="M2.05 6.19 L2.07 5.56 C2.07 5.54 2.02 5.53 2 5.53 C1.68 5.63 1.02 5.74 0.32 5.83 L0.34 6.17 L0.75 6.21 C0.89 6.22 0.97 6.29 0.97 6.79 L0.97 9.25 C0.97 9.53 0.82 9.59 0.49 9.66 L0.4 9.68 C0.35 9.69 0.32 9.71 0.32 9.77 L0.32 10 L0.34 10.02 C0.34 10.02 1.15 10 1.5 10 C1.9 10 2.62 10.02 2.62 10.02 L2.64 10 L2.64 9.77 C2.64 9.71 2.6 9.69 2.55 9.68 C2.32 9.65 2.07 9.6 2.07 9.25 L2.07 6.59 C2.49 6.24 2.82 6.11 3.11 6.11 C3.36 6.11 3.52 6.36 3.52 6.99 L3.52 9.24 C3.52 9.52 3.38 9.65 3.05 9.68 C2.99 9.69 2.96 9.72 2.96 9.77 L2.96 10 L2.98 10.02 C2.98 10.02 3.7 10 4.06 10 C4.45 10 5.17 10.02 5.17 10.02 L5.19 10 L5.19 9.77 C5.19 9.71 5.15 9.68 5.11 9.68 C4.87 9.65 4.62 9.59 4.62 9.24 L4.62 7.18 C4.62 7.04 4.61 6.73 4.6 6.6 C4.99 6.27 5.35 6.11 5.69 6.11 C5.93 6.11 6.09 6.37 6.09 6.97 L6.09 9.24 C6.09 9.52 5.95 9.65 5.61 9.68 C5.55 9.69 5.53 9.72 5.53 9.77 L5.53 10 L5.55 10.02 C5.55 10.02 6.27 10 6.62 10 C7.01 10 7.82 10.02 7.82 10.02 L7.84 10 L7.84 9.77 C7.84 9.71 7.8 9.69 7.76 9.68 L7.68 9.66 C7.37 9.58 7.19 9.52 7.19 9.24 L7.19 7.19 C7.19 6.29 7.09 5.56 6.04 5.56 C5.51 5.56 4.96 5.82 4.5 6.22 C4.35 5.83 4 5.56 3.47 5.56 C2.92 5.56 2.42 5.88 2.07 6.19 L2.05 6.19 Z"/>
  <path id="GlLinLibertineOZ112" d="M1.95 6.59 C2.24 6.27 2.6 6.08 2.84 6.08 C3.43 6.08 3.73 6.73 3.73 7.9 C3.73 8.74 3.43 9.68 2.56 9.68 C2.45 9.68 2.2 9.62 1.95 9.35 L1.95 6.59 L1.95 6.59 Z M1.95 6.19 L1.93 6.19 L1.95 5.56 C1.95 5.54 1.9 5.53 1.88 5.53 C1.56 5.63 0.9 5.74 0.2 5.83 L0.22 6.17 L0.63 6.21 C0.77 6.22 0.85 6.29 0.85 6.79 L0.85 11.54 C0.85 11.82 0.7 11.91 0.37 11.98 L0.28 12 C0.23 12.02 0.2 12.03 0.2 12.08 L0.2 12.32 L0.22 12.34 C0.22 12.34 1.02 12.32 1.38 12.32 C1.77 12.32 2.58 12.34 2.58 12.34 L2.59 12.32 L2.59 12.08 C2.59 12.03 2.55 12.02 2.51 12 L2.43 11.98 C2.11 11.91 1.95 11.82 1.95 11.54 L1.95 9.93 C2.16 10.04 2.38 10.1 2.62 10.1 C3.23 10.1 3.72 9.92 4.11 9.53 C4.6 9.04 4.88 8.41 4.88 7.63 C4.88 6.57 4.25 5.56 3.16 5.56 C2.72 5.56 2.27 5.82 1.95 6.19 Z"/>
  <path id="GlLinLibertineOZ104" d="M4.68 9.23 L4.68 7.16 C4.68 6.11 4.36 5.55 3.5 5.55 C3.13 5.55 2.5 5.78 1.95 6.19 L1.95 4.17 C1.95 3.52 1.98 3.12 1.98 3.12 C1.98 3.05 1.91 3.02 1.82 3.02 C1.56 3.12 0.54 3.25 0.14 3.28 L0.17 3.57 C0.17 3.6 0.19 3.62 0.23 3.62 L0.55 3.64 C0.75 3.64 0.85 3.72 0.85 4.37 L0.85 9.23 C0.85 9.51 0.68 9.61 0.37 9.66 L0.25 9.68 C0.2 9.69 0.17 9.71 0.17 9.77 L0.17 10 L0.19 10.02 C0.19 10.02 1.03 10 1.38 10 C1.77 10 2.57 10.02 2.57 10.02 L2.59 10 L2.59 9.77 C2.59 9.71 2.54 9.69 2.51 9.68 L2.44 9.66 C2.12 9.57 1.95 9.51 1.95 9.23 L1.95 6.59 C2.41 6.26 2.9 6.1 3.08 6.1 C3.48 6.1 3.58 6.27 3.58 7.05 L3.58 9.23 C3.58 9.51 3.4 9.58 3.1 9.66 L3.03 9.68 C2.98 9.69 2.95 9.71 2.95 9.77 L2.95 10 L2.97 10.02 C2.97 10.02 3.76 10 4.11 10 C4.5 10 5.34 10.02 5.34 10.02 L5.36 10 L5.36 9.77 C5.36 9.71 5.31 9.69 5.28 9.68 L5.17 9.66 C4.84 9.61 4.68 9.51 4.68 9.23 Z"/>
  <path id="GlLinLibertineOZ233" d="M2.82 3.26 L1.99 4.57 C1.93 4.66 1.91 4.75 1.91 4.81 C1.91 4.87 1.99 4.95 2.07 4.95 C2.17 4.95 2.31 4.91 2.45 4.79 L3.65 3.71 L3.55 3.48 C3.47 3.38 3.28 3.24 2.98 3.24 C2.93 3.24 2.85 3.25 2.82 3.26 L2.82 3.26 Z M1.54 7.15 C1.68 6.13 2.27 5.98 2.48 5.98 C2.75 5.98 3.16 6.24 3.16 7.04 C3.16 7.1 3.16 7.13 3.14 7.15 L1.54 7.15 L1.54 7.15 Z M3.97 8.91 C3.6 9.36 3.23 9.54 2.85 9.54 C2.07 9.54 1.49 8.79 1.49 7.81 L1.49 7.55 L3.92 7.55 C4.16 7.55 4.31 7.48 4.31 7.34 C4.31 6.49 3.96 5.56 2.49 5.56 C1.44 5.56 0.34 6.49 0.34 8.02 C0.34 9.12 0.94 10.1 2.46 10.1 C3.15 10.1 3.85 9.87 4.22 9.12 L3.97 8.91 Z"/>
  <path id="GlLinLibertineOZ116" d="M1.99 6.13 L2.79 6.13 C2.98 6.13 3.16 6.08 3.16 5.96 L3.16 5.76 C3.16 5.7 3.13 5.66 2.94 5.66 L1.99 5.66 L1.99 4.05 L1.18 4.36 C1.18 5.17 1.08 5.66 0.58 5.66 C0.38 5.66 0.2 5.68 0.2 5.74 L0.2 6.05 C0.2 6.11 0.22 6.13 0.38 6.13 L0.89 6.13 L0.89 9.08 C0.89 9.81 1.25 10.1 1.75 10.1 C2.3 10.1 2.79 9.85 3.16 9.36 L2.93 9.13 C2.63 9.37 2.45 9.38 2.25 9.38 C2.12 9.38 1.99 9.31 1.99 8.65 L1.99 6.13 Z"/>
  <path id="GlLinLibertineOZ113" d="M3.35 6.51 L3.35 9.39 C3.13 9.52 2.9 9.59 2.78 9.59 C2.28 9.59 1.49 9.18 1.49 7.71 C1.49 6.71 1.9 5.98 2.55 5.98 C2.83 5.98 3.09 6.11 3.35 6.51 L3.35 6.51 Z M3.35 11.55 C3.35 11.83 3.2 11.92 2.88 11.98 L2.78 12 C2.73 12.01 2.7 12.03 2.7 12.09 L2.7 12.32 L2.72 12.34 C2.72 12.34 3.53 12.32 3.89 12.32 C4.28 12.32 5.08 12.34 5.08 12.34 L5.1 12.32 L5.1 12.09 C5.1 12.03 5.05 12.01 5.02 12 L4.94 11.98 C4.63 11.91 4.45 11.83 4.45 11.55 L4.45 6.79 C4.45 6.45 4.47 5.64 4.47 5.64 C4.47 5.56 4.4 5.53 4.37 5.53 C4.15 5.53 3.97 5.66 3.69 5.99 C3.49 5.82 3.12 5.56 2.58 5.56 C1.25 5.56 0.36 6.59 0.36 7.92 C0.36 8.85 0.89 10.1 2.44 10.1 C2.79 10.1 3.18 10 3.35 9.92 L3.35 11.55 Z"/>
  <path id="GlLinLibertineO49" d="M2.88 8.78 L2.88 5.31 C2.88 4.71 2.89 4.1 2.91 3.97 C2.91 3.93 2.88 3.92 2.85 3.92 C2.29 4.27 1.77 4.51 0.89 4.92 C0.9 5.04 0.95 5.13 1.04 5.19 C1.49 5 1.72 4.94 1.91 4.94 C2.07 4.94 2.11 5.18 2.11 5.52 L2.11 8.78 C2.11 9.61 1.84 9.66 1.14 9.69 C1.08 9.75 1.08 9.96 1.14 10.02 C1.63 10.01 1.98 10 2.53 10 C3 10 3.25 10.01 3.75 10.02 C3.81 9.96 3.81 9.75 3.75 9.69 C3.05 9.66 2.88 9.61 2.88 8.78 Z"/>
  <path id="GlLinLibertineO56" d="M2.34 4.25 C2.99 4.25 3.23 4.68 3.23 5.14 C3.23 5.68 2.7 6.13 2.43 6.33 L2.12 6.14 C1.49 5.73 1.42 5.4 1.42 5.09 C1.42 4.63 1.74 4.25 2.34 4.25 L2.34 4.25 Z M3.93 5.15 C3.93 4.43 3.37 3.9 2.39 3.9 C1.37 3.9 0.71 4.51 0.71 5.28 C0.71 5.84 0.98 6.25 1.59 6.63 L1.84 6.79 C1.55 6.95 1.29 7.12 1.04 7.34 C0.63 7.7 0.46 8.15 0.46 8.54 C0.46 9.56 1.18 10.1 2.24 10.1 C3.55 10.1 4.19 9.14 4.19 8.38 C4.19 7.8 3.94 7.3 3.41 6.97 L2.7 6.54 C3.17 6.31 3.93 5.79 3.93 5.15 L3.93 5.15 Z M2.26 9.75 C1.81 9.75 1.13 9.44 1.13 8.54 C1.13 8.24 1.26 7.54 2.12 6.97 L2.59 7.25 C3.21 7.63 3.46 8.1 3.46 8.58 C3.46 9.58 2.71 9.75 2.26 9.75 Z"/>
  <path id="GlLinLibertineO54" d="M1.35 6.93 C1.67 6.72 2 6.7 2.17 6.7 C3.15 6.7 3.37 7.66 3.37 8.16 C3.37 9.26 2.95 9.76 2.46 9.76 C1.83 9.76 1.26 9.42 1.26 7.71 C1.26 7.49 1.29 7.22 1.35 6.93 L1.35 6.93 Z M1.44 6.57 C1.71 5.66 2.35 4.65 3.68 4.15 C3.68 4.03 3.64 3.94 3.56 3.89 C2.55 4.19 1.93 4.61 1.37 5.26 C0.75 5.98 0.44 6.89 0.44 7.68 C0.44 9.71 1.59 10.11 2.36 10.11 C3.67 10.11 4.21 8.84 4.21 7.98 C4.21 7.12 3.75 6.35 2.39 6.35 C2.13 6.35 1.74 6.43 1.44 6.57 Z"/>
  <clipPath id="Clip0">
   <path d="M0 0 L275.375 0 L275.375 91.25 L0 91.25 L0 0 Z" transform="translate(162.062, 618.5)"/>
  </clipPath>
  <clipPath id="Clip1">
   <path d="M0 0 L262.25 0 L262.25 60.5 L0 60.5 L0 0 Z" transform="translate(175.188, 640.75)"/>
  </clipPath>
  <path id="GlLinBiolinumO74" d="M1.4 9.05 C1.4 9.93 1.35 11.12 0.56 11.12 C0.27 11.12 0.09 10.97 -0.02 10.77 L-0.13 10.78 C-0.2 11.05 -0.3 11.41 -0.41 11.6 L-0.4 11.63 C-0.32 11.68 -0.14 11.72 0.05 11.72 C0.68 11.72 1.21 11.5 1.63 10.96 C2.16 10.27 2.26 9.98 2.26 8.83 L2.26 5.55 C2.26 4.8 2.28 4.08 2.36 3.55 L2.35 3.52 C2.23 3.54 1.95 3.55 1.83 3.55 C1.71 3.55 1.44 3.54 1.32 3.52 L1.3 3.55 C1.38 4.12 1.4 4.8 1.4 5.55 L1.4 9.05 Z"/>
  <path id="GlLinBiolinumO233" d="M2.7 3.29 L1.94 4.48 C1.86 4.61 1.83 4.65 1.83 4.76 C1.83 4.83 1.9 4.89 1.97 4.89 C2.04 4.89 2.12 4.85 2.27 4.7 L3.42 3.61 L3.39 3.5 C3.16 3.28 2.9 3.27 2.84 3.27 C2.79 3.27 2.73 3.28 2.7 3.29 L2.7 3.29 Z M1.25 7.27 C1.42 6.23 2.07 6.01 2.39 6.01 C2.78 6.01 3.23 6.38 3.23 7.13 C3.23 7.22 3.19 7.27 3.09 7.27 L1.25 7.27 L1.25 7.27 Z M3.92 8.96 C3.57 9.34 3.1 9.51 2.55 9.51 C2.2 9.51 1.73 9.38 1.46 8.94 C1.28 8.66 1.22 8.26 1.22 7.67 L3.94 7.67 C4.05 7.67 4.12 7.61 4.12 7.5 C4.12 6.66 3.71 5.61 2.39 5.61 C1.36 5.61 0.34 6.44 0.34 7.91 C0.34 8.48 0.45 9.04 0.79 9.44 C1.13 9.86 1.7 10.1 2.38 10.1 C3.1 10.1 3.74 9.73 4.12 9.21 L3.92 8.96 Z"/>
  <path id="GlLinBiolinumO114" d="M1.67 6.66 L1.67 5.75 C1.67 5.68 1.65 5.65 1.61 5.65 C1.38 5.7 1.02 5.71 0.8 5.68 L0.78 5.71 C0.85 6.15 0.87 6.9 0.87 7.65 L0.87 8.2 C0.87 8.95 0.85 9.47 0.78 10 L0.8 10.03 C0.92 10.01 1.15 10 1.27 10 C1.39 10 1.62 10.01 1.74 10.03 L1.76 10 C1.68 9.43 1.67 8.96 1.67 8.2 L1.67 7.68 C1.67 7.26 1.79 7.02 2.01 6.69 C2.15 6.47 2.38 6.34 2.57 6.34 C2.77 6.34 2.96 6.36 3.09 6.48 L3.17 6.46 L3.37 5.72 L3.33 5.68 C3.16 5.63 3.15 5.61 2.97 5.61 C2.43 5.61 2.14 5.92 1.7 6.68 L1.67 6.66 Z"/>
  <path id="GlLinBiolinumO111" d="M0.38 7.95 C0.38 9.15 1.17 10.1 2.5 10.1 C3.82 10.1 4.62 9.17 4.62 7.86 C4.62 6.5 3.89 5.61 2.54 5.61 C1.23 5.61 0.38 6.53 0.38 7.95 L0.38 7.95 Z M2.47 6.01 C3.53 6.01 3.74 6.83 3.74 8.04 C3.74 9 3.26 9.7 2.59 9.7 C1.53 9.7 1.26 8.55 1.26 7.78 C1.26 6.91 1.53 6.01 2.47 6.01 Z"/>
  <path id="GlLinBiolinumO98" d="M1.62 9.19 L1.62 6.6 C2.01 6.2 2.26 6.01 2.67 6.01 C3.28 6.01 3.82 6.52 3.82 7.76 C3.82 9 3.45 9.7 2.5 9.7 C2.19 9.7 1.82 9.44 1.62 9.19 L1.62 9.19 Z M1.62 5 C1.62 4.26 1.63 3.74 1.68 3.12 C1.68 3.05 1.65 3.02 1.59 3.02 C1.33 3.12 1.12 3.19 0.72 3.22 L0.7 3.25 C0.77 3.68 0.82 4.42 0.82 5.18 L0.82 9.27 C0.82 9.66 0.81 9.81 0.77 10.02 C0.83 10.08 0.94 10.1 1.05 10.1 C1.16 9.98 1.27 9.81 1.38 9.61 C1.67 9.86 2.13 10.1 2.56 10.1 C3.58 10.1 4.71 9.38 4.71 7.68 C4.71 6.46 3.84 5.61 2.87 5.61 C2.39 5.61 1.96 5.74 1.62 6.11 L1.62 5 Z"/>
  <path id="GlLinBiolinumO97" d="M3.1 7.75 L3.06 8.94 C3.06 9.07 3 9.14 2.92 9.2 C2.64 9.41 2.3 9.59 2 9.59 C1.55 9.59 1.26 9.29 1.26 8.98 C1.26 8.53 1.47 8.19 2.25 7.98 L3.1 7.75 L3.1 7.75 Z M3.1 9.52 C3.21 9.92 3.51 10.1 3.88 10.1 C4.13 10.1 4.44 10.04 4.67 9.79 L4.6 9.55 C4.49 9.59 4.4 9.6 4.33 9.6 C4.23 9.6 4.1 9.58 4.03 9.53 C3.93 9.43 3.87 9.19 3.87 8.75 C3.87 8.46 3.9 7.35 3.9 7.24 C3.9 5.89 3.01 5.62 2.25 5.62 C1.49 5.62 1.03 5.99 0.78 6.2 L0.75 6.24 L0.92 6.91 L1.05 6.92 C1.33 6.47 1.67 6.07 2.15 6.07 C2.51 6.07 3.11 6.12 3.11 7.25 C3.11 7.32 3.07 7.36 3.04 7.37 L2.11 7.58 C1.09 7.81 0.45 8.35 0.45 9.03 C0.45 9.77 0.96 10.11 1.7 10.11 C2.25 10.11 2.53 9.98 3.06 9.53 L3.1 9.52 Z"/>
  <path id="GlLinBiolinumO109" d="M1.62 6.48 L1.62 5.75 C1.62 5.68 1.6 5.65 1.56 5.65 C1.33 5.7 0.97 5.71 0.75 5.68 L0.73 5.71 C0.8 6.15 0.82 6.9 0.82 7.65 L0.82 8.2 C0.82 8.95 0.81 9.46 0.73 10 L0.75 10.03 C0.87 10.01 1.1 10 1.22 10 C1.34 10 1.57 10.01 1.69 10.03 L1.71 10 C1.63 9.43 1.62 8.96 1.62 8.2 L1.62 6.99 C2.09 6.51 2.65 6.21 3 6.21 C3.38 6.21 3.66 6.43 3.66 7.1 L3.66 8.2 C3.66 8.95 3.65 9.46 3.57 10 L3.59 10.03 C3.71 10.01 3.94 10 4.06 10 C4.18 10 4.41 10.01 4.53 10.03 L4.55 10 C4.47 9.43 4.46 8.96 4.46 8.2 L4.46 7.19 C4.46 7.05 4.46 6.93 4.45 6.81 C4.93 6.28 5.33 6.21 5.72 6.21 C6.26 6.21 6.52 6.43 6.52 7.1 L6.52 8.2 C6.52 8.95 6.51 9.46 6.43 10 L6.45 10.03 C6.57 10.01 6.8 10 6.92 10 C7.04 10 7.27 10.01 7.39 10.03 L7.41 10 C7.33 9.43 7.32 8.96 7.32 8.2 L7.32 7.2 C7.32 6.31 7.16 5.61 6.08 5.61 C5.54 5.61 4.96 5.8 4.39 6.4 C4.3 5.92 3.89 5.61 3.33 5.61 C2.71 5.61 2.12 6.01 1.65 6.51 L1.62 6.48 Z"/>
  <path id="GlLinBiolinumO78" d="M1.08 3.55 C1.17 5.45 1.14 8.41 0.98 10 L1 10.03 C1.12 10.01 1.23 10 1.35 10 C1.47 10 1.58 10.01 1.7 10.03 L1.72 10 C1.64 9.43 1.62 8.75 1.62 8 L1.62 5.61 C1.62 5 1.63 4.97 2.01 5.45 L5.5 9.86 C5.61 10.01 5.77 10.1 5.93 10.1 C6.07 10.1 6.11 9.98 6.12 9.79 C6.17 7.51 6.16 5.77 6.32 3.55 L6.3 3.52 C6.18 3.54 6.07 3.55 5.95 3.55 C5.83 3.55 5.72 3.54 5.6 3.52 L5.58 3.55 C5.66 4.12 5.68 4.8 5.68 5.55 L5.68 8.22 C5.66 8.77 5.52 8.54 5.09 7.97 L1.66 3.53 C1.66 3.53 1.56 3.55 1.52 3.55 C1.18 3.55 1.1 3.52 1.1 3.52 L1.08 3.55 Z"/>
  <path id="GlLinBiolinumO46" d="M0.54 9.56 C0.62 9.9 0.76 10.03 1.08 10.1 L1.12 10.1 C1.4 10.03 1.55 9.89 1.66 9.56 L1.66 9.52 C1.56 9.24 1.41 9.09 1.12 8.98 L1.08 8.98 C0.77 9.11 0.63 9.26 0.54 9.52 L0.54 9.56 Z"/>
 </defs>
 <g id="fondDePage">
  <g transform="translate(106.875, 61.5)">
   <use style="fill:#c4c6c7;stroke:none;" xlink:href="#GlLinLibertineO67" transform="matrix(3.1 0 0 3.1 88.2325 -4.55)"/>
   <use style="fill:#161412;stroke:none;" xlink:href="#GlLinLibertineO67" transform="matrix(3.1 0 0 3.1 86.6825 -6.1)"/>
   <use style="fill:#c4c6c7;stroke:none;" xlink:href="#GlLinLibertineO104" transform="matrix(3.1 0 0 3.1 108.258 -4.55)"/>
   <use style="fill:#161412;stroke:none;" xlink:href="#GlLinLibertineO104" transform="matrix(3.1 0 0 3.1 106.708 -6.1)"/>
   <use style="fill:#c4c6c7;stroke:none;" xlink:href="#GlLinLibertineO97" transform="matrix(3.1 0 0 3.1 124.936 -4.55)"/>
   <use style="fill:#161412;stroke:none;" xlink:href="#GlLinLibertineO97" transform="matrix(3.1 0 0 3.1 123.386 -6.1)"/>
   <use style="fill:#c4c6c7;stroke:none;" xlink:href="#GlLinLibertineO114" transform="matrix(3.1 0 0 3.1 139.103 -4.55)"/>
   <use style="fill:#161412;stroke:none;" xlink:href="#GlLinLibertineO114" transform="matrix(3.1 0 0 3.1 137.553 -6.1)"/>
   <use style="fill:#c4c6c7;stroke:none;" xlink:href="#GlLinLibertineO108" transform="matrix(3.1 0 0 3.1 150.635 -4.55)"/>
   <use style="fill:#161412;stroke:none;" xlink:href="#GlLinLibertineO108" transform="matrix(3.1 0 0 3.1 149.085 -6.1)"/>
   <use style="fill:#c4c6c7;stroke:none;" xlink:href="#GlLinLibertineO101" transform="matrix(3.1 0 0 3.1 158.819 -4.55)"/>
   <use style="fill:#161412;stroke:none;" xlink:href="#GlLinLibertineO101" transform="matrix(3.1 0 0 3.1 157.269 -6.1)"/>
   <use style="fill:#c4c6c7;stroke:none;" xlink:href="#GlLinLibertineO115" transform="matrix(3.1 0 0 3.1 172.676 -4.55)"/>
   <use style="fill:#161412;stroke:none;" xlink:href="#GlLinLibertineO115" transform="matrix(3.1 0 0 3.1 171.126 -6.1)"/>
   <use style="fill:#c4c6c7;stroke:none;" xlink:href="#GlLinLibertineO68" transform="matrix(3.1 0 0 3.1 192.516 -4.55)"/>
   <use style="fill:#161412;stroke:none;" xlink:href="#GlLinLibertineO68" transform="matrix(3.1 0 0 3.1 190.966 -6.1)"/>
   <use style="fill:#c4c6c7;stroke:none;" xlink:href="#GlLinLibertineO101" transform="matrix(3.1 0 0 3.1 214.247 -4.55)"/>
   <use style="fill:#161412;stroke:none;" xlink:href="#GlLinLibertineO101" transform="matrix(3.1 0 0 3.1 212.697 -6.1)"/>
   <use style="fill:#c4c6c7;stroke:none;" xlink:href="#GlLinLibertineO122" transform="matrix(3.1 0 0 3.1 228.105 -4.55)"/>
   <use style="fill:#161412;stroke:none;" xlink:href="#GlLinLibertineO122" transform="matrix(3.1 0 0 3.1 226.555 -6.1)"/>
   <use style="fill:#c4c6c7;stroke:none;" xlink:href="#GlLinLibertineO111" transform="matrix(3.1 0 0 3.1 241.249 -4.55)"/>
   <use style="fill:#161412;stroke:none;" xlink:href="#GlLinLibertineO111" transform="matrix(3.1 0 0 3.1 239.699 -6.1)"/>
   <use style="fill:#c4c6c7;stroke:none;" xlink:href="#GlLinLibertineO98" transform="matrix(3.1 0 0 3.1 256.872 -4.55)"/>
   <use style="fill:#161412;stroke:none;" xlink:href="#GlLinLibertineO98" transform="matrix(3.1 0 0 3.1 255.322 -6.1)"/>
   <use style="fill:#c4c6c7;stroke:none;" xlink:href="#GlLinLibertineO114" transform="matrix(3.1 0 0 3.1 272.155 -4.55)"/>
   <use style="fill:#161412;stroke:none;" xlink:href="#GlLinLibertineO114" transform="matrix(3.1 0 0 3.1 270.605 -6.1)"/>
   <use style="fill:#c4c6c7;stroke:none;" xlink:href="#GlLinLibertineO121" transform="matrix(3.1 0 0 3.1 284.152 -4.55)"/>
   <use style="fill:#161412;stroke:none;" xlink:href="#GlLinLibertineO121" transform="matrix(3.1 0 0 3.1 282.602 -6.1)"/>
   <path style="fill:none; stroke:none;" d="M0 0 L386.25 0 L386.25 51.9286 L0 51.9286 L0 0 Z"/>
  </g>
  <g transform="translate(39.1071, 254.75)">
   <use style="fill:#c4c6c7;stroke:none;" xlink:href="#GlLinLibertineOZ68" transform="matrix(4.1 0 0 4.1 22.62 -4.322)"/>
   <use style="fill:#161412;stroke:none;" xlink:href="#GlLinLibertineOZ68" transform="matrix(4.1 0 0 4.1 20.57 -6.372)"/>
   <use style="fill:#c4c6c7;stroke:none;" xlink:href="#GlLinLibertineOZ101" transform="matrix(4.1 0 0 4.1 52.263 -4.322)"/>
   <use style="fill:#161412;stroke:none;" xlink:href="#GlLinLibertineOZ101" transform="matrix(4.1 0 0 4.1 50.213 -6.372)"/>
   <use style="fill:#c4c6c7;stroke:none;" xlink:href="#GlLinLibertineOZ115" transform="matrix(4.1 0 0 4.1 71.164 -4.322)"/>
   <use style="fill:#161412;stroke:none;" xlink:href="#GlLinLibertineOZ115" transform="matrix(4.1 0 0 4.1 69.114 -6.372)"/>
   <use style="fill:#c4c6c7;stroke:none;" xlink:href="#GlLinLibertineOZ118" transform="matrix(4.1 0 0 4.1 97.855 -4.322)"/>
   <use style="fill:#161412;stroke:none;" xlink:href="#GlLinLibertineOZ118" transform="matrix(4.1 0 0 4.1 95.805 -6.372)"/>
   <use style="fill:#c4c6c7;stroke:none;" xlink:href="#GlLinLibertineOZ101" transform="matrix(4.1 0 0 4.1 119.257 -4.322)"/>
   <use style="fill:#161412;stroke:none;" xlink:href="#GlLinLibertineOZ101" transform="matrix(4.1 0 0 4.1 117.207 -6.372)"/>
   <use style="fill:#c4c6c7;stroke:none;" xlink:href="#GlLinLibertineOZ114" transform="matrix(4.1 0 0 4.1 138.158 -4.322)"/>
   <use style="fill:#161412;stroke:none;" xlink:href="#GlLinLibertineOZ114" transform="matrix(4.1 0 0 4.1 136.108 -6.372)"/>
   <use style="fill:#c4c6c7;stroke:none;" xlink:href="#GlLinLibertineOZ115" transform="matrix(4.1 0 0 4.1 154.681 -4.322)"/>
   <use style="fill:#161412;stroke:none;" xlink:href="#GlLinLibertineOZ115" transform="matrix(4.1 0 0 4.1 152.631 -6.372)"/>
   <use style="fill:#c4c6c7;stroke:none;" xlink:href="#GlLinLibertineOZ80" transform="matrix(4.1 0 0 4.1 181.372 -4.322)"/>
   <use style="fill:#161412;stroke:none;" xlink:href="#GlLinLibertineOZ80" transform="matrix(4.1 0 0 4.1 179.322 -6.372)"/>
   <use style="fill:#c4c6c7;stroke:none;" xlink:href="#GlLinLibertineOZ114" transform="matrix(4.1 0 0 4.1 203.922 -4.322)"/>
   <use style="fill:#161412;stroke:none;" xlink:href="#GlLinLibertineOZ114" transform="matrix(4.1 0 0 4.1 201.872 -6.372)"/>
   <use style="fill:#c4c6c7;stroke:none;" xlink:href="#GlLinLibertineOZ111" transform="matrix(4.1 0 0 4.1 220.158 -4.322)"/>
   <use style="fill:#161412;stroke:none;" xlink:href="#GlLinLibertineOZ111" transform="matrix(4.1 0 0 4.1 218.108 -6.372)"/>
   <use style="fill:#c4c6c7;stroke:none;" xlink:href="#GlLinLibertineOZ118" transform="matrix(4.1 0 0 4.1 241.15 -4.322)"/>
   <use style="fill:#161412;stroke:none;" xlink:href="#GlLinLibertineOZ118" transform="matrix(4.1 0 0 4.1 239.1 -6.372)"/>
   <use style="fill:#c4c6c7;stroke:none;" xlink:href="#GlLinLibertineOZ101" transform="matrix(4.1 0 0 4.1 262.552 -4.322)"/>
   <use style="fill:#161412;stroke:none;" xlink:href="#GlLinLibertineOZ101" transform="matrix(4.1 0 0 4.1 260.502 -6.372)"/>
   <use style="fill:#c4c6c7;stroke:none;" xlink:href="#GlLinLibertineOZ114" transform="matrix(4.1 0 0 4.1 281.453 -4.322)"/>
   <use style="fill:#161412;stroke:none;" xlink:href="#GlLinLibertineOZ114" transform="matrix(4.1 0 0 4.1 279.403 -6.372)"/>
   <use style="fill:#c4c6c7;stroke:none;" xlink:href="#GlLinLibertineOZ98" transform="matrix(4.1 0 0 4.1 297.894 -4.322)"/>
   <use style="fill:#161412;stroke:none;" xlink:href="#GlLinLibertineOZ98" transform="matrix(4.1 0 0 4.1 295.844 -6.372)"/>
   <use style="fill:#c4c6c7;stroke:none;" xlink:href="#GlLinLibertineOZ101" transform="matrix(4.1 0 0 4.1 318.804 -4.322)"/>
   <use style="fill:#161412;stroke:none;" xlink:href="#GlLinLibertineOZ101" transform="matrix(4.1 0 0 4.1 316.754 -6.372)"/>
   <use style="fill:#c4c6c7;stroke:none;" xlink:href="#GlLinLibertineOZ115" transform="matrix(4.1 0 0 4.1 337.705 -4.322)"/>
   <use style="fill:#161412;stroke:none;" xlink:href="#GlLinLibertineOZ115" transform="matrix(4.1 0 0 4.1 335.655 -6.372)"/>
   <use style="fill:#c4c6c7;stroke:none;" xlink:href="#GlLinLibertineOZ102" transform="matrix(4.1 0 0 4.1 364.396 -4.322)"/>
   <use style="fill:#161412;stroke:none;" xlink:href="#GlLinLibertineOZ102" transform="matrix(4.1 0 0 4.1 362.346 -6.372)"/>
   <use style="fill:#c4c6c7;stroke:none;" xlink:href="#GlLinLibertineOZ114" transform="matrix(4.1 0 0 4.1 378.172 -4.322)"/>
   <use style="fill:#161412;stroke:none;" xlink:href="#GlLinLibertineOZ114" transform="matrix(4.1 0 0 4.1 376.122 -6.372)"/>
   <use style="fill:#c4c6c7;stroke:none;" xlink:href="#GlLinLibertineOZ97" transform="matrix(4.1 0 0 4.1 394.613 -4.322)"/>
   <use style="fill:#161412;stroke:none;" xlink:href="#GlLinLibertineOZ97" transform="matrix(4.1 0 0 4.1 392.563 -6.372)"/>
   <use style="fill:#c4c6c7;stroke:none;" xlink:href="#GlLinLibertineOZ110" transform="matrix(4.1 0 0 4.1 414.129 -4.322)"/>
   <use style="fill:#161412;stroke:none;" xlink:href="#GlLinLibertineOZ110" transform="matrix(4.1 0 0 4.1 412.079 -6.372)"/>
   <use style="fill:#c4c6c7;stroke:none;" xlink:href="#GlLinLibertineOZ231" transform="matrix(4.1 0 0 4.1 437.212 -4.322)"/>
   <use style="fill:#161412;stroke:none;" xlink:href="#GlLinLibertineOZ231" transform="matrix(4.1 0 0 4.1 435.162 -6.372)"/>
   <use style="fill:#c4c6c7;stroke:none;" xlink:href="#GlLinLibertineOZ97" transform="matrix(4.1 0 0 4.1 455.047 -4.322)"/>
   <use style="fill:#161412;stroke:none;" xlink:href="#GlLinLibertineOZ97" transform="matrix(4.1 0 0 4.1 452.997 -6.372)"/>
   <use style="fill:#c4c6c7;stroke:none;" xlink:href="#GlLinLibertineOZ105" transform="matrix(4.1 0 0 4.1 474.563 -4.322)"/>
   <use style="fill:#161412;stroke:none;" xlink:href="#GlLinLibertineOZ105" transform="matrix(4.1 0 0 4.1 472.513 -6.372)"/>
   <use style="fill:#c4c6c7;stroke:none;" xlink:href="#GlLinLibertineOZ115" transform="matrix(4.1 0 0 4.1 486.289 -4.322)"/>
   <use style="fill:#161412;stroke:none;" xlink:href="#GlLinLibertineOZ115" transform="matrix(4.1 0 0 4.1 484.239 -6.372)"/>
   <path style="fill:none; stroke:none;" d="M0 0 L521.786 0 L521.786 63 L0 63 L0 0 Z"/>
  </g>
  <g transform="translate(29.9107, 190.75)">
   <use style="fill:#c4c6c7;stroke:none;" xlink:href="#GlLinLibertineOZ65" transform="matrix(4.9 0 0 4.9 63.335 -6.338)"/>
   <use style="fill:#161412;stroke:none;" xlink:href="#GlLinLibertineOZ65" transform="matrix(4.9 0 0 4.9 60.885 -8.788)"/>
   <use style="fill:#c4c6c7;stroke:none;" xlink:href="#GlLinLibertineOZ108" transform="matrix(4.9 0 0 4.9 97.586 -6.338)"/>
   <use style="fill:#161412;stroke:none;" xlink:href="#GlLinLibertineOZ108" transform="matrix(4.9 0 0 4.9 95.136 -8.788)"/>
   <use style="fill:#c4c6c7;stroke:none;" xlink:href="#GlLinLibertineOZ98" transform="matrix(4.9 0 0 4.9 111.747 -6.338)"/>
   <use style="fill:#161412;stroke:none;" xlink:href="#GlLinLibertineOZ98" transform="matrix(4.9 0 0 4.9 109.297 -8.788)"/>
   <use style="fill:#c4c6c7;stroke:none;" xlink:href="#GlLinLibertineOZ117" transform="matrix(4.9 0 0 4.9 136.492 -6.338)"/>
   <use style="fill:#161412;stroke:none;" xlink:href="#GlLinLibertineOZ117" transform="matrix(4.9 0 0 4.9 134.042 -8.788)"/>
   <use style="fill:#c4c6c7;stroke:none;" xlink:href="#GlLinLibertineOZ109" transform="matrix(4.9 0 0 4.9 163.442 -6.338)"/>
   <use style="fill:#161412;stroke:none;" xlink:href="#GlLinLibertineOZ109" transform="matrix(4.9 0 0 4.9 160.992 -8.788)"/>
   <use style="fill:#c4c6c7;stroke:none;" xlink:href="#GlLinLibertineOZ97" transform="matrix(4.9 0 0 4.9 214.941 -6.338)"/>
   <use style="fill:#161412;stroke:none;" xlink:href="#GlLinLibertineOZ97" transform="matrix(4.9 0 0 4.9 212.491 -8.788)"/>
   <use style="fill:#c4c6c7;stroke:none;" xlink:href="#GlLinLibertineOZ108" transform="matrix(4.9 0 0 4.9 238.265 -6.338)"/>
   <use style="fill:#161412;stroke:none;" xlink:href="#GlLinLibertineOZ108" transform="matrix(4.9 0 0 4.9 235.815 -8.788)"/>
   <use style="fill:#c4c6c7;stroke:none;" xlink:href="#GlLinLibertineOZ112" transform="matrix(4.9 0 0 4.9 252.426 -6.338)"/>
   <use style="fill:#161412;stroke:none;" xlink:href="#GlLinLibertineOZ112" transform="matrix(4.9 0 0 4.9 249.976 -8.788)"/>
   <use style="fill:#c4c6c7;stroke:none;" xlink:href="#GlLinLibertineOZ104" transform="matrix(4.9 0 0 4.9 278.053 -6.338)"/>
   <use style="fill:#161412;stroke:none;" xlink:href="#GlLinLibertineOZ104" transform="matrix(4.9 0 0 4.9 275.603 -8.788)"/>
   <use style="fill:#c4c6c7;stroke:none;" xlink:href="#GlLinLibertineOZ97" transform="matrix(4.9 0 0 4.9 305.003 -6.338)"/>
   <use style="fill:#161412;stroke:none;" xlink:href="#GlLinLibertineOZ97" transform="matrix(4.9 0 0 4.9 302.553 -8.788)"/>
   <use style="fill:#c4c6c7;stroke:none;" xlink:href="#GlLinLibertineOZ98" transform="matrix(4.9 0 0 4.9 328.327 -6.338)"/>
   <use style="fill:#161412;stroke:none;" xlink:href="#GlLinLibertineOZ98" transform="matrix(4.9 0 0 4.9 325.877 -8.788)"/>
   <use style="fill:#c4c6c7;stroke:none;" xlink:href="#GlLinLibertineOZ233" transform="matrix(4.9 0 0 4.9 353.072 -6.338)"/>
   <use style="fill:#161412;stroke:none;" xlink:href="#GlLinLibertineOZ233" transform="matrix(4.9 0 0 4.9 350.622 -8.788)"/>
   <use style="fill:#c4c6c7;stroke:none;" xlink:href="#GlLinLibertineOZ116" transform="matrix(4.9 0 0 4.9 375.661 -6.338)"/>
   <use style="fill:#161412;stroke:none;" xlink:href="#GlLinLibertineOZ116" transform="matrix(4.9 0 0 4.9 373.211 -8.788)"/>
   <use style="fill:#c4c6c7;stroke:none;" xlink:href="#GlLinLibertineOZ105" transform="matrix(4.9 0 0 4.9 391.88 -6.338)"/>
   <use style="fill:#161412;stroke:none;" xlink:href="#GlLinLibertineOZ105" transform="matrix(4.9 0 0 4.9 389.43 -8.788)"/>
   <use style="fill:#c4c6c7;stroke:none;" xlink:href="#GlLinLibertineOZ113" transform="matrix(4.9 0 0 4.9 405.894 -6.338)"/>
   <use style="fill:#161412;stroke:none;" xlink:href="#GlLinLibertineOZ113" transform="matrix(4.9 0 0 4.9 403.444 -8.788)"/>
   <use style="fill:#c4c6c7;stroke:none;" xlink:href="#GlLinLibertineOZ117" transform="matrix(4.9 0 0 4.9 431.276 -6.338)"/>
   <use style="fill:#161412;stroke:none;" xlink:href="#GlLinLibertineOZ117" transform="matrix(4.9 0 0 4.9 428.826 -8.788)"/>
   <use style="fill:#c4c6c7;stroke:none;" xlink:href="#GlLinLibertineOZ101" transform="matrix(4.9 0 0 4.9 458.226 -6.338)"/>
   <use style="fill:#161412;stroke:none;" xlink:href="#GlLinLibertineOZ101" transform="matrix(4.9 0 0 4.9 455.776 -8.788)"/>
   <path style="fill:none; stroke:none;" d="M0 0 L540.179 0 L540.179 76.5 L0 76.5 L0 0 Z"/>
  </g>
  <g transform="translate(228.464, 480.267)">
   <use style="fill:#c4c6c7;stroke:none;" xlink:href="#GlLinLibertineO49" transform="matrix(4 0 0 4 35.925 -4.55)"/>
   <use style="fill:#161412;stroke:none;" xlink:href="#GlLinLibertineO49" transform="matrix(4 0 0 4 33.925 -6.55)"/>
   <use style="fill:#c4c6c7;stroke:none;" xlink:href="#GlLinLibertineO56" transform="matrix(4 0 0 4 54.525 -4.55)"/>
   <use style="fill:#161412;stroke:none;" xlink:href="#GlLinLibertineO56" transform="matrix(4 0 0 4 52.525 -6.55)"/>
   <use style="fill:#c4c6c7;stroke:none;" xlink:href="#GlLinLibertineO54" transform="matrix(4 0 0 4 73.125 -4.55)"/>
   <use style="fill:#161412;stroke:none;" xlink:href="#GlLinLibertineO54" transform="matrix(4 0 0 4 71.125 -6.55)"/>
   <use style="fill:#c4c6c7;stroke:none;" xlink:href="#GlLinLibertineO54" transform="matrix(4 0 0 4 91.725 -4.55)"/>
   <use style="fill:#161412;stroke:none;" xlink:href="#GlLinLibertineO54" transform="matrix(4 0 0 4 89.725 -6.55)"/>
   <path style="fill:none; stroke:none;" d="M0 0 L143.071 0 L143.071 50.5 L0 50.5 L0 0 Z"/>
  </g>
  <g id="logoV06" clip-path="url(#Clip0)">
   <path style="fill:#ffffff; fill-rule:evenodd;stroke:#161412; stroke-width:4; stroke-linecap:butt; stroke-linejoin:miter; stroke-dasharray:none;" d="M24 0 L247.11 0 C260.365 0 271.11 10.7452 271.11 24 L271.11 63.25 C271.11 76.5048 260.365 87.25 247.11 87.25 L24 87.25 C10.7452 87.25 0 76.5048 0 63.25 L0 24 C0 10.7452 10.7452 0 24 0 Z" transform="translate(164.062, 620.5)"/>
   <g id="logotype" clip-path="url(#Clip1)">
    <g transform="translate(175.188, 640.75)">
     <use style="fill:#c4c6c7;stroke:none;" xlink:href="#GlLinBiolinumO74" transform="matrix(4.8 0 0 4.8 2.4 -12.086)"/>
     <use style="fill:#161412;stroke:none;" xlink:href="#GlLinBiolinumO74" transform="matrix(4.8 0 0 4.8 0 -14.486)"/>
     <use style="fill:#c4c6c7;stroke:none;" xlink:href="#GlLinBiolinumO233" transform="matrix(4.8 0 0 4.8 17.76 -12.086)"/>
     <use style="fill:#161412;stroke:none;" xlink:href="#GlLinBiolinumO233" transform="matrix(4.8 0 0 4.8 15.36 -14.486)"/>
     <use style="fill:#c4c6c7;stroke:none;" xlink:href="#GlLinBiolinumO114" transform="matrix(4.8 0 0 4.8 39.504 -12.086)"/>
     <use style="fill:#161412;stroke:none;" xlink:href="#GlLinBiolinumO114" transform="matrix(4.8 0 0 4.8 37.104 -14.486)"/>
     <use style="fill:#c4c6c7;stroke:none;" xlink:href="#GlLinBiolinumO111" transform="matrix(4.8 0 0 4.8 56.16 -12.086)"/>
     <use style="fill:#161412;stroke:none;" xlink:href="#GlLinBiolinumO111" transform="matrix(4.8 0 0 4.8 53.76 -14.486)"/>
     <use style="fill:#c4c6c7;stroke:none;" xlink:href="#GlLinBiolinumO98" transform="matrix(4.8 0 0 4.8 80.16 -12.086)"/>
     <use style="fill:#161412;stroke:none;" xlink:href="#GlLinBiolinumO98" transform="matrix(4.8 0 0 4.8 77.76 -14.486)"/>
     <use style="fill:#c4c6c7;stroke:none;" xlink:href="#GlLinBiolinumO111" transform="matrix(4.8 0 0 4.8 104.832 -12.086)"/>
     <use style="fill:#161412;stroke:none;" xlink:href="#GlLinBiolinumO111" transform="matrix(4.8 0 0 4.8 102.432 -14.486)"/>
     <use style="fill:#c4c6c7;stroke:none;" xlink:href="#GlLinBiolinumO97" transform="matrix(4.8 0 0 4.8 128.832 -12.086)"/>
     <use style="fill:#161412;stroke:none;" xlink:href="#GlLinBiolinumO97" transform="matrix(4.8 0 0 4.8 126.432 -14.486)"/>
     <use style="fill:#c4c6c7;stroke:none;" xlink:href="#GlLinBiolinumO109" transform="matrix(4.8 0 0 4.8 151.92 -12.086)"/>
     <use style="fill:#161412;stroke:none;" xlink:href="#GlLinBiolinumO109" transform="matrix(4.8 0 0 4.8 149.52 -14.486)"/>
     <path style="fill:none; stroke:none;" d="M0 0 L200 0 L200 47.25 L0 47.25 L0 0 Z"/>
    </g>
    <g transform="translate(373.438, 643)">
     <use style="fill:#c4c6c7;stroke:none;" xlink:href="#GlLinBiolinumO78" transform="matrix(5.8 0 0 5.8 2.9 -17.516)"/>
     <use style="fill:#b22121;stroke:none;" xlink:href="#GlLinBiolinumO78" transform="matrix(5.8 0 0 5.8 0 -20.416)"/>
     <use style="fill:#c4c6c7;stroke:none;" xlink:href="#GlLinBiolinumO46" transform="matrix(5.8 0 0 5.8 44.544 -17.516)"/>
     <use style="fill:#b22121;stroke:none;" xlink:href="#GlLinBiolinumO46" transform="matrix(5.8 0 0 5.8 41.644 -20.416)"/>
     <path style="fill:none; stroke:none;" d="M0 0 L64 0 L64 58.25 L0 58.25 L0 0 Z"/>
    </g>
   </g>
  </g>
 </g>
</svg>
